:FULLY-SPECIFIED
:FORCE-ALL-JOINTS-BE-3DOF
:DEGREES
1529
root -4.72291 15.3391 19.7398 549.318 -17.1415 548.991
lfemur -42.11 16.172 -7.5377
ltibia 81.7215 0 0
lfoot -16.4622 27.2702 0
ltoes -15.3876 0 0
rfemur -34.4362 -7.21628 17.2374
rtibia 59.2548 0 0
rfoot -17.1958 -22.4233 0
rtoes -29.5138 0 0
lowerback 16.8997 0.5439 4.4165
upperback -1.20981 1.88227 3.38563
thorax -10.8696 0.701093 0.709571
lowerneck -4.52479 6.15036 3.28924
upperneck 1.43572 8.2627 -7.27317
head 1.70912 4.00695 -2.62703
lclavicle 5.36388e-014 4.14324e-014 0
lhumerus 11.7575 -8.60926 63.9182
lradius 67.1998 0 0
lwrist -18.4014 0 0
lhand -30.6785 67.8417 0
lfingers 7.12502 0 0
lthumb -3.97243 -149.052 0
rclavicle 5.36388e-014 4.14324e-014 0
rhumerus -52.6662 31.884 -87.6516
rradius 104.428 0 0
rwrist -55.1181 0 0
rhand 6.66797 -30.6964 0
rfingers 7.12502 0 0
rthumb 31.9576 -57.8931 0
1530
root -4.68599 15.3471 19.8079 548.432 -20.0399 547.86
lfemur -40.9793 16.7802 -6.3107
ltibia 81.024 0 0
lfoot -16.7593 27.3946 0
ltoes -15.1207 0 0
rfemur -34.0229 -7.77194 17.0258
rtibia 59.2214 0 0
rfoot -17.1572 -22.7105 0
rtoes -30.2158 0 0
lowerback 16.7111 0.551484 4.2769
upperback -1.21446 1.84269 3.43883
thorax -10.7694 0.688289 0.861369
lowerneck -4.5952 5.8733 3.11561
upperneck 1.2796 7.86654 -7.02021
head 1.62662 3.80999 -2.52984
lclavicle 5.58279e-014 4.2607e-014 0
lhumerus 6.01879 -5.32792 67.2256
lradius 63.7578 0 0
lwrist -20.5205 0 0
lhand -31.0662 69.1444 0
lfingers 7.12502 0 0
lthumb -4.34692 -138.875 0
rclavicle 5.58279e-014 4.2607e-014 0
rhumerus -54.1456 30.4307 -88.9421
rradius 104.338 0 0
rwrist -56.2246 0 0
rhand 6.92416 -30.3096 0
rfingers 7.12502 0 0
rthumb 32.2019 -57.4598 0
1531
root -4.64908 15.3551 19.876 547.772 -22.866 546.76
lfemur -39.9151 17.318 -5.26722
ltibia 80.3022 0 0
lfoot -17.026 27.4694 0
ltoes -14.9775 0 0
rfemur -33.69 -8.29748 16.8181
rtibia 59.3232 0 0
rfoot -17.0987 -22.9453 0
rtoes -30.7456 0 0
lowerback 16.5424 0.554167 4.11602
upperback -1.21689 1.79453 3.48439
thorax -10.6769 0.672779 1.01882
lowerneck -4.65993 5.59514 2.93378
upperneck 1.14428 7.47264 -6.77302
head 1.55305 3.61418 -2.43295
lclavicle 5.74395e-014 4.34591e-014 0
lhumerus 0.848454 -2.43296 70.2317
lradius 60.6394 0 0
lwrist -22.3592 0 0
lhand -31.3909 70.1943 0
lfingers 7.12502 0 0
lthumb -4.66042 -128.955 0
rclavicle 5.74395e-014 4.34591e-014 0
rhumerus -55.509 29.1248 -90.1521
rradius 104.308 0 0
rwrist -57.2331 0 0
rhand 7.15145 -29.9484 0
rfingers 7.12502 0 0
rthumb 32.4186 -57.0576 0
1532
root -4.61216 15.3632 19.9441 547.394 -25.6081 545.728
lfemur -38.936 17.7779 -4.43877
ltibia 79.5673 0 0
lfoot -17.2607 27.4894 0
ltoes -14.9732 0 0
rfemur -33.4452 -8.78629 16.6176
rtibia 59.5741 0 0
rfoot -17.0173 -23.1231 0
rtoes -31.0818 0 0
lowerback 16.3964 0.551079 3.9333
upperback -1.21696 1.73699 3.52189
thorax -10.5936 0.65426 1.18193
lowerneck -4.71755 5.31794 2.74462
upperneck 1.03269 7.0843 -6.53436
head 1.4898 3.42118 -2.33727
lclavicle 5.83971e-014 4.39539e-014 0
lhumerus -3.65169 0.0176019 72.8794
lradius 57.8971 0 0
lwrist -23.8811 0 0
lhand -31.6447 70.9591 0
lfingers 7.12502 0 0
lthumb -4.9056 -119.361 0
rclavicle 5.83971e-014 4.39539e-014 0
rhumerus -56.7492 27.9935 -91.2748
rradius 104.352 0 0
rwrist -58.1362 0 0
rhand 7.34735 -29.619 0
rfingers 7.12502 0 0
rthumb 32.6054 -56.6934 0
1533
root -4.57525 15.3712 20.0122 547.358 -28.2543 544.802
lfemur -38.0606 18.1521 -3.85682
ltibia 78.8305 0 0
lfoot -17.4616 27.4494 0
ltoes -15.123 0 0
rfemur -33.2963 -9.23181 16.4275
rtibia 59.9885 0 0
rfoot -16.9103 -23.2391 0
rtoes -31.2028 0 0
lowerback 16.2761 0.541348 3.72816
upperback -1.21455 1.66926 3.55089
thorax -10.5208 0.63243 1.35072
lowerneck -4.76659 5.0438 2.54901
upperneck 0.947784 6.70483 -6.30702
head 1.43829 3.23264 -2.24372
lclavicle 5.86244e-014 4.40566e-014 0
lhumerus -7.3798 1.96577 75.1114
lradius 55.5834 0 0
lwrist -25.0498 0 0
lhand -31.8202 71.4067 0
lfingers 7.12502 0 0
lthumb -5.07508 -110.16 0
rclavicle 5.86244e-014 4.40566e-014 0
rhumerus -57.8591 27.0645 -92.3034
rradius 104.482 0 0
rwrist -58.9267 0 0
rhand 7.50935 -29.3276 0
rfingers 7.12502 0 0
rthumb 32.76 -56.3738 0
1534
root -4.53833 15.3792 20.0803 547.722 -30.793 544.022
lfemur -37.3075 18.4331 -3.55288
ltibia 78.1027 0 0
lfoot -17.6273 27.3442 0
ltoes -15.4423 0 0
rfemur -33.2513 -9.62745 16.2511
rtibia 60.5806 0 0
rfoot -16.7747 -23.2886 0
rtoes -31.0872 0 0
lowerback 16.1844 0.524106 3.50005
upperback -1.20955 1.59053 3.57097
thorax -10.46 0.606985 1.52519
lowerneck -4.80562 4.77477 2.3478
upperneck 0.892484 6.33753 -6.09375
head 1.39991 3.05021 -2.15324
lclavicle 5.80451e-014 4.37326e-014 0
lhumerus -10.234 3.35353 76.8702
lradius 53.7508 0 0
lwrist -25.8288 0 0
lhand -31.9097 71.5048 0
lfingers 7.12502 0 0
lthumb -5.16151 -101.422 0
rclavicle 5.80451e-014 4.37326e-014 0
rhumerus -58.8316 26.3651 -93.231
rradius 104.71 0 0
rwrist -59.5973 0 0
rhand 7.63495 -29.0801 0
rfingers 7.12502 0 0
rthumb 32.8799 -56.1055 0
1535
root -4.65266 15.3866 20.0946 548.235 -33.2871 543.36
lfemur -36.6377 18.6314 -3.51155
ltibia 77.3023 0 0
lfoot -17.7394 27.1609 0
ltoes -15.9582 0 0
rfemur -33.3329 -10.0041 16.082
rtibia 61.4557 0 0
rfoot -16.638 -23.281 0
rtoes -30.7163 0 0
lowerback 16.1221 0.499893 3.23311
upperback -1.19969 1.49721 3.57779
thorax -10.409 0.576921 1.71061
lowerneck -4.84052 4.5002 2.13207
upperneck 0.861063 5.9683 -5.88635
head 1.37161 2.8669 -2.06173
lclavicle 5.64914e-014 4.2932e-014 0
lhumerus -12.3189 4.2243 78.2185
lradius 52.3143 0 0
lwrist -26.2209 0 0
lhand -31.9151 71.2219 0
lfingers 7.12502 0 0
lthumb -5.16676 -92.8122 0
rclavicle 5.64914e-014 4.2932e-014 0
rhumerus -59.722 25.8826 -94.0816
rradius 105.064 0 0
rwrist -60.1524 0 0
rhand 7.66155 -28.8509 0
rfingers 7.12502 0 0
rthumb 32.9125 -55.9187 0
1536
root -4.767 15.3939 20.1089 548.629 -35.8009 542.751
lfemur -35.9976 18.7647 -3.68275
ltibia 76.3506 0 0
lfoot -17.7852 26.8951 0
ltoes -16.674 0 0
rfemur -33.55 -10.3942 15.9112
rtibia 62.6809 0 0
rfoot -16.5257 -23.2293 0
rtoes -30.101 0 0
lowerback 16.0863 0.470188 2.91534
upperback -1.18331 1.38738 3.5684
thorax -10.3646 0.5418 1.91118
lowerneck -4.87773 4.20907 1.89364
upperneck 0.845413 5.58189 -5.67494
head 1.34923 2.67513 -1.96481
lclavicle 5.39209e-014 4.16566e-014 0
lhumerus -13.8405 4.68241 79.2749
lradius 51.1429 0 0
lwrist -26.2719 0 0
lhand -31.8472 70.5713 0
lfingers 7.12502 0 0
lthumb -5.10116 -83.9824 0
rclavicle 5.39209e-014 4.16566e-014 0
rhumerus -60.5833 25.5739 -94.8828
rradius 105.554 0 0
rwrist -60.6042 0 0
rhand 7.54208 -28.612 0
rfingers 7.12502 0 0
rthumb 32.8184 -55.8294 0
1537
root -4.88133 15.4013 20.1232 548.931 -38.3251 542.17
lfemur -35.3841 18.836 -4.04588
ltibia 75.2632 0 0
lfoot -17.7716 26.5549 0
ltoes -17.5695 0 0
rfemur -33.8896 -10.7939 15.738
rtibia 64.2135 0 0
rfoot -16.4318 -23.1345 0
rtoes -29.264 0 0
lowerback 16.0746 0.435523 2.55193
upperback -1.16118 1.26276 3.54446
thorax -10.3262 0.502164 2.12531
lowerneck -4.91666 3.90292 1.63448
upperneck 0.844905 5.17987 -5.45975
head 1.33258 2.47568 -1.86297
lclavicle 5.04449e-014 3.99493e-014 0
lhumerus -14.8489 4.76125 80.0666
lradius 50.2202 0 0
lwrist -26.0101 0 0
lhand -31.7115 69.5883 0
lfingers 7.12502 0 0
lthumb -4.97004 -74.9782 0
rclavicle 5.04449e-014 3.99493e-014 0
rhumerus -61.4045 25.4208 -95.6329
rradius 106.16 0 0
rwrist -60.9572 0 0
rhand 7.29732 -28.3662 0
rfingers 7.12502 0 0
rthumb 32.6154 -55.8232 0
1538
root -4.99566 15.4086 20.1375 549.171 -40.8502 541.597
lfemur -34.794 18.8481 -4.58037
ltibia 74.0559 0 0
lfoot -17.7054 26.1484 0
ltoes -18.6243 0 0
rfemur -34.3384 -11.1992 15.5616
rtibia 66.0103 0 0
rfoot -16.3505 -22.9976 0
rtoes -28.2281 0 0
lowerback 16.0842 0.396434 2.14811
upperback -1.13408 1.12508 3.50761
thorax -10.2934 0.458557 2.3514
lowerneck -4.95669 3.58328 1.35658
upperneck 0.858909 4.76383 -5.24104
head 1.32145 2.26931 -1.7567
lclavicle 4.61749e-014 3.78528e-014 0
lhumerus -15.3941 4.49419 80.6207
lradius 49.5297 0 0
lwrist -25.4638 0 0
lhand -31.5134 68.308 0
lfingers 7.12502 0 0
lthumb -4.77873 -65.8449 0
rclavicle 4.61749e-014 3.78528e-014 0
rhumerus -62.1748 25.4052 -96.3301
rradius 106.864 0 0
rwrist -61.2158 0 0
rhand 6.94805 -28.1164 0
rfingers 7.12502 0 0
rthumb 32.3212 -55.8857 0
1539
root -5.11 15.416 20.1518 549.376 -43.3666 541.007
lfemur -34.2242 18.804 -5.26565
ltibia 72.7441 0 0
lfoot -17.5934 25.6836 0
ltoes -19.8179 0 0
rfemur -34.8835 -11.6061 15.3813
rtibia 68.0285 0 0
rfoot -16.2758 -22.8195 0
rtoes -27.016 0 0
lowerback 16.1127 0.353452 1.70907
upperback -1.10278 0.976068 3.45948
thorax -10.2657 0.411523 2.58788
lowerneck -4.99721 3.25171 1.06192
upperneck 0.886795 4.33536 -5.01905
head 1.31564 2.05681 -1.64649
lclavicle 4.12222e-014 3.54099e-014 0
lhumerus -15.5263 3.91463 80.9643
lradius 49.0548 0 0
lwrist -24.6614 0 0
lhand -31.2585 66.7659 0
lfingers 7.12502 0 0
lthumb -4.53254 -56.6279 0
rclavicle 4.12222e-014 3.54099e-014 0
rhumerus -62.8833 25.5089 -96.9726
rradius 107.648 0 0
rwrist -61.3845 0 0
rhand 6.51506 -27.8655 0
rfingers 7.12502 0 0
rthumb 31.9535 -56.0025 0
1540
root -5.22433 15.4234 20.166 549.575 -45.8649 540.378
lfemur -33.6714 18.7066 -6.08115
ltibia 71.3436 0 0
lfoot -17.4423 25.1684 0
ltoes -21.1302 0 0
rfemur -35.5117 -12.0106 15.1966
rtibia 70.225 0 0
rfoot -16.2017 -22.6012 0
rtoes -25.6506 0 0
lowerback 16.1574 0.307114 1.24002
upperback -1.06807 0.817439 3.40173
thorax -10.2425 0.361606 2.83314
lowerneck -5.03762 2.90973 0.752492
upperneck 0.927935 3.89605 -4.79401
head 1.31493 1.83895 -1.53282
lclavicle 3.56983e-014 3.26632e-014 0
lhumerus -15.2955 3.05595 81.1245
lradius 48.779 0 0
lwrist -23.6312 0 0
lhand -30.9523 64.997 0
lfingers 7.12502 0 0
lthumb -4.23681 -47.3726 0
rclavicle 3.56983e-014 3.26632e-014 0
rhumerus -63.519 25.7139 -97.5588
rradius 108.494 0 0
rwrist -61.468 0 0
rhand 6.01913 -27.6161 0
rfingers 7.12502 0 0
rthumb 31.5299 -56.1592 0
